<svg version="1.1" viewBox="0.0 0.0 960.0 720.0" fill="none" stroke="none" stroke-linecap="square" stroke-miterlimit="10" xmlns:xlink="http://www.w3.org/1999/xlink" xmlns="http://www.w3.org/2000/svg"><clipPath id="p.0"><path d="m0 0l960.0 0l0 720.0l-960.0 0l0 -720.0z" clip-rule="nonzero"/></clipPath><g clip-path="url(#p.0)"><path fill="#000000" fill-opacity="0.0" d="m0 0l960.0 0l0 720.0l-960.0 0z" fill-rule="evenodd"/><path fill="#000000" fill-opacity="0.0" d="m0 148.29921l960.0 0l0 423.4016l-960.0 0z" fill-rule="evenodd"/><path fill="#ff0000" d="m365.08643 449.14297l0 28.15625l-157.70312 0q-0.328125 -10.578125 3.421875 -20.34375q6.015625 -16.109375 19.28125 -31.734375q13.265625 -15.625 38.328125 -36.140625q38.90625 -31.890625 52.578125 -50.53125q13.671875 -18.640625 13.671875 -35.234375q0 -17.421875 -12.453125 -29.375q-12.453125 -11.96875 -32.46875 -11.96875q-21.171875 0 -33.875 12.703125q-12.6875 12.6875 -12.84375 35.140625l-30.109375 -3.078125q3.09375 -33.703125 23.265625 -51.35939q20.1875 -17.65625 54.203125 -17.65625q34.34375 0 54.359375 19.04689q20.03125 19.03125 20.03125 47.1875q0 14.328125 -5.859375 28.171875q-5.859375 13.828125 -19.453125 29.125q-13.59375 15.296875 -45.171875 41.984375q-26.359375 22.140625 -33.859375 30.046875q-7.484375 7.890625 -12.359375 15.859375l117.015625 0zm101.08435 -10.421875l0 -65.421875l-64.953125 0l0 -27.34375l64.953125 0l0 -64.9375l27.65625 0l0 64.9375l64.953125 0l0 27.34375l-64.953125 0l0 65.421875l-27.65625 0zm278.95532 10.421875l0 28.15625l-157.70312 0q-0.328125 -10.578125 3.421875 -20.34375q6.015625 -16.109375 19.28125 -31.734375q13.265625 -15.625 38.328125 -36.140625q38.90625 -31.890625 52.578125 -50.53125q13.671875 -18.640625 13.671875 -35.234375q0 -17.421875 -12.453125 -29.375q-12.453125 -11.96875 -32.46875 -11.96875q-21.171875 0 -33.875 12.703125q-12.6875 12.6875 -12.84375 35.140625l-30.109375 -3.078125q3.09375 -33.703125 23.265625 -51.35939q20.1875 -17.65625 54.203125 -17.65625q34.34375 0 54.359375 19.04689q20.03125 19.03125 20.03125 47.1875q0 14.328125 -5.859375 28.171875q-5.859375 13.828125 -19.453125 29.125q-13.59375 15.296875 -45.171875 41.984375q-26.359375 22.140625 -33.859375 30.046875q-7.484375 7.890625 -12.359375 15.859375l117.015625 0z" fill-rule="nonzero"/></g></svg>